<svg viewBox="0 0 320 320" fill="none" xmlns="http://www.w3.org/2000/svg">
<rect width="320" height="320" fill="#111827"/>
<path fill-rule="evenodd" clip-rule="evenodd" d="M238.472 104.928C240.665 107.122 241.897 110.098 241.897 113.2C241.897 116.302 240.665 119.278 238.472 121.472L144.872 215.072C142.678 217.265 139.702 218.498 136.6 218.498C133.498 218.498 130.522 217.265 128.328 215.072L81.5281 168.272C79.3968 166.065 78.2175 163.11 78.2442 160.042C78.2709 156.974 79.5013 154.04 81.6706 151.871C83.8399 149.701 86.7744 148.471 89.8421 148.444C92.9098 148.418 95.8652 149.597 98.0719 151.728L136.6 190.256L221.928 104.928C224.122 102.735 227.098 101.503 230.2 101.503C233.302 101.503 236.278 102.735 238.472 104.928Z" fill="white"/>
</svg>
